<?xml version="1.0" encoding="utf-8"?>
<!-- Generator: Adobe Illustrator 21.1.0, SVG Export Plug-In . SVG Version: 6.00 Build 0)  -->
<svg version="1.1"
	 id="svg10" inkscape:version="0.92.2 (5c3e80d, 2017-08-06)" sodipodi:docname="Octopus_Full_Vector.svg" xmlns:cc="http://creativecommons.org/ns#" xmlns:dc="http://purl.org/dc/elements/1.1/" xmlns:inkscape="http://www.inkscape.org/namespaces/inkscape" xmlns:rdf="http://www.w3.org/1999/02/22-rdf-syntax-ns#" xmlns:sodipodi="http://sodipodi.sourceforge.net/DTD/sodipodi-0.dtd" xmlns:svg="http://www.w3.org/2000/svg"
	 xmlns="http://www.w3.org/2000/svg" xmlns:xlink="http://www.w3.org/1999/xlink" x="0px" y="0px" viewBox="0 0 249.1 250.4"
	 style="enable-background:new 0 0 249.1 250.4;" xml:space="preserve">
<sodipodi:namedview  bordercolor="#666666" borderopacity="1" gridtolerance="10" guidetolerance="10" id="namedview12" inkscape:current-layer="svg10" inkscape:cx="124.54054" inkscape:cy="125.18919" inkscape:pageopacity="0" inkscape:pageshadow="2" inkscape:window-height="1051" inkscape:window-maximized="1" inkscape:window-width="1920" inkscape:window-x="-9" inkscape:window-y="-9" inkscape:zoom="3.4268133" objecttolerance="10" pagecolor="#ffffff" showgrid="false">
	</sodipodi:namedview>
<path id="path20" inkscape:connector-curvature="0" d="M127.5,249.7c-7.1-0.5-14.9-9.9-13.4-18.8c-1.4-6.7,14-24.4,10.7-9.8
	c-7.1,11,6.6,26.4,16.6,15.7c6.8-8.3,3.4-19.8-1.5-27.6c-6-9.7-11.5-20.8-19.9-29.1c-10.6-11.2-28.7-17.7-42.4-8.4
	c-12.7,6.9-26.6,9.6-39.5,16.4c-12.2,8.2,1.6,14.8,10.3,15.5c6.4,2.6,9.5,24.8,3,20.8c-1.4-12.8-13.4-13.7-23-16.1
	c-8.5-3.5-10.5-16-4.1-23.2c6.6-7.7,13.8-12.3,22.2-17.4c7.6-5.5,16.7-8.6,22.8-15.9c10.2-9.8,1.4-24.9-9.6-29.5
	c-7.1-5.3-11.9-7.3-20.1-12.4c-8.5-5.1-22.3-8.3-28.2,2.4c-7.5,12.6,11.1,18.8,19.6,12c12.2-2.7-4.1,12.9-10.5,11.7
	c-12.4,3.5-23.9-10.2-19.5-22.2c2.3-12.1,12.8-20.8,25.1-20.3c7.6-0.5,14.7,0.9,21.5,3.3c10.8,3.1,20,10.1,30.6,13.8
	c12.9-7.9-8.5-20.3-5.6-31.4c2-8.7,10.6-21.6-4.1-21.6c-9-1.1-16.9-6.2-22.3-13.1C39.5,33.5,50,18.4,62.1,21.1
	c10-2.5,20.4,18.9,7.1,17.2c-0.1-10.1-17.8-9.8-11.9,1c8.6,8.5,23.2,3.2,32.6,10.2c10,9.2-2.7,24.5,5.1,34.2
	c10.4,5.2,25.3-2.5,25.1-14.9c-0.2-18.8,10-35.3,22.1-48.8c10.3-10.7-11.5-13.8-12.3-1.8c-1.7,7.8-10.2,12.9-8,0.8
	c1.8-8.7,7.7-16.2,15.7-18.1c12.3-4.4,26.3,9.3,19.7,21.4c-3.2,11.9-15.4,21.3-15.3,33.4c12.6-4.1,27.3-6.9,39.5,0.8
	c9,6.6,17.2,17.2,17.2,29.4c3.2,7.3-7.2,19.4-2.8,23c11.8-3.3,20.8-12.8,32.7-16.1c13.1-7.6,22.1,8.3,19.7,19.9
	c2.8,13.6-19.5,20.2-24.2,12.2c5.7-4.7,17.9-6,16.4-16.5c-6.5-7.8-14.2,5-20.7,8.2c-7.1,4.8-14.1,9.2-20.3,11.1
	c-6.3,2-21.7,2.5-25.8,4.4c-9.6,3.3-13.4,27,0.9,25.9c10.4-2.3,27.3-5.7,28.9,9.6c2.1,8.8,1.5,30.5,15.8,24.8
	c5-8.7-18.2-13.3-2.4-18.2c11.1,0.8,15.2,15.2,9.9,24c-3.3,9.7-15.6,10.7-22.8,3.8c-12.7-4.9-6.1-30.7-19.9-28.6
	c-9.5,6.6-22.6,5.9-30.2-3.1c-4.5-1.9-12.5-5.8-13.5,3.2c6.9,16.3,17.9,32.3,16.3,51c-0.4,12.9-10.5,26.3-24.4,25.6
	C130.7,250.1,129.1,250.1,127.5,249.7L127.5,249.7z M137.8,246.3c13.5-3,17.3-19.4,15.4-31.5c-1.8-16.2-13-29.1-17.3-44.5
	c-0.2-5.8-2.5-24.9,6.1-22.3c7.4,6.7,10.2,18.1,19.2,23.8c7.5,5.5,18.1,0,26.6-2.7c10.6,2.3,6.2,19.5,13.9,26.1
	c4.5,5.7,13.4,11,19.5,5.3c9.5-5.2,2.5-27.9-7.2-21c17-0.5,5,27.4-6,15.1c-8.6-9.3-4-24.2-11.3-34.2c-9.9-3.3-20.4,3.1-30.3-0.3
	c-7-4.6-9.9-13.7-8.4-22c1.5-6.9,11-10.3-0.6-5c-8.4,3.2-15.7,12.2-25,10.3c-9.8-4.2-14.8-14.8-22.9-21.6
	c-10.7-10.1,9.4-23.7,6.3-31.2c-7.6,4.9-19.2,1.2-24.7-6c-6.4-10.4,6.2-25.8-5.3-33.6c-11.1-4-27.3-0.3-33-13.5
	c-1.1-13.9,17.2-11.3,19.9-2.4c1-8.5-11.3-10.7-14.2-10.8c-18.2,1.8-11,25.5,3.1,28c11.1,0.4,25.6,6.4,15.9,19.4
	c-7.2,11.8,3.5,22.7,13.3,28.1c6.6,3.1,18.8,11.5,6.3,14.7c-9.1,2.3-17.6,0.2-25.2-3C61.6,107.6,52.3,100,41,98.8
	c-4.9-2-16.9-3.1-25,0c-11.6,3.9-18.1,22.6-7.1,30.7c3.5,5.5,19.6,2.8,14.9,1.1c-12.8,3.7-20.4-9.8-14-20.5
	c5.8-11.2,20.2-9.6,29.6-4.9c6.8,5.2,15.3,7.9,22,13.9c9.6,7.3,21.4,10.2,33.3,10.3c13.3,2.7-8.2,12.1-11.5,16.5
	c-10.6,7.5-20.1,17.1-31.9,22.5c-8.4,5.7-17.4,10.9-24.5,18.1c-10,10.1,3.4,23.1,14.7,21.3c6-0.1,13.5,9.4,5.6,0.4
	c-10-2.7-25.7-11.3-12.1-21.6c11.2-8.5,25.9-9.5,38.1-16.4c14.3-6.1,25.1-18.2,37.1-27.9c14.5-0.9,7.6,21.8,13.3,31
	c3.1,11.5,12.3,20,17.4,30.7c5.3,10.1,13,25.5,2.2,34.8c-6.2,8.6-20.9,5.7-22.3-5.7c-0.7-7.3,0.5-15.1-3-4.1
	c-3,10.6,7.6,20.7,18.1,17.6L137.8,246.3L137.8,246.3z M52.3,216.3c-1.3-3.8-0.6,3.5,0.1,2.1L52.3,216.3z M182.2,126.9
	c8.9,0.1,17.9-1.9,25.7-6.5c10.5-4.3,17.3-14.3,27.4-18.7c15.1,1,4.7,22.5-4.6,23.3c11.1-0.5,21.6-14.8,13.7-24.7
	c-6.9-10.4-19.2-3.4-27.1,1.5c-6.5,3.2-18.8,11.6-22.8,10.4c-4.6,3.8-19.8,12.1-17.2,15C178.9,126.9,180.5,126.9,182.2,126.9z
	 M126.4,71c10.1-8.6,12.7-21.4,19-32.5c5-8.7,14.4-19.8,8.1-30c-6.5-7.5-19.3-5.5-24.1,1.1c-3.7,4.1-6,15.6-1.6,5.7
	c4.1-14.1,29.7-7.9,17.2,5.7c-9.1,12.1-19.9,24.3-21,40.3C124.4,64.8,119.1,88.4,126.4,71z"/>
</svg>
