<?xml version="1.0" encoding="utf-8"?>
<!-- Generator: Adobe Illustrator 21.1.0, SVG Export Plug-In . SVG Version: 6.00 Build 0)  -->
<svg version="1.1"
	 id="svg10" inkscape:version="0.92.2 (5c3e80d, 2017-08-06)" sodipodi:docname="Octopus_Full_Vector.svg" xmlns:cc="http://creativecommons.org/ns#" xmlns:dc="http://purl.org/dc/elements/1.1/" xmlns:inkscape="http://www.inkscape.org/namespaces/inkscape" xmlns:rdf="http://www.w3.org/1999/02/22-rdf-syntax-ns#" xmlns:sodipodi="http://sodipodi.sourceforge.net/DTD/sodipodi-0.dtd" xmlns:svg="http://www.w3.org/2000/svg"
	 xmlns="http://www.w3.org/2000/svg" xmlns:xlink="http://www.w3.org/1999/xlink" x="0px" y="0px" viewBox="0 0 249.2 233.6"
	 style="enable-background:new 0 0 249.2 233.6;" xml:space="preserve">
<sodipodi:namedview  bordercolor="#666666" borderopacity="1" gridtolerance="10" guidetolerance="10" id="namedview12" inkscape:current-layer="svg10" inkscape:cx="124.54054" inkscape:cy="125.18919" inkscape:pageopacity="0" inkscape:pageshadow="2" inkscape:window-height="1051" inkscape:window-maximized="1" inkscape:window-width="1920" inkscape:window-x="-9" inkscape:window-y="-9" inkscape:zoom="3.4268133" objecttolerance="10" pagecolor="#ffffff" showgrid="false">
	</sodipodi:namedview>
<path id="path20" inkscape:connector-curvature="0" d="M214.2,191.9c-5.4,4.7-17.5,3.5-22.8-3.8c-5.7-3.7-7.4-27.2,0.6-14.5
	c2.8,12.8,23.3,14,22.8-0.6c-1.1-10.7-11.6-16.4-20.6-18.5c-11.1-2.6-22.8-6.6-34.6-6.5c-15.4-0.4-32.8,7.8-35.9,24
	c-4.1,13.9-12,25.6-16.3,39.5c-2.8,14.4,11.6,9.3,18.2,3.7c6.4-2.7,24.3,10.8,16.8,12.6c-10-8.1-19.2-0.2-27.6,4.9
	c-8.5,3.5-18.7-3.9-19.3-13.5c-0.8-10.1,1.1-18.5,3.4-28c1.5-9.3,5.7-17.9,4.9-27.4c0.3-14.1-16.6-18.6-27.6-14.1
	c-8.8,1.3-13.6,3.3-23,5.4c-9.6,2.4-21.6,9.9-18.2,21.6c3.6,14.2,21.1,5.4,22.3-5.4c6.7-10.5,6.2,12,0.8,15.7
	c-6.3,11.2-24.1,9.7-29.5-1.9c-6.9-10.2-5.7-23.8,3.4-32.1c5-5.7,11-9.8,17.5-12.9c9.8-5.4,21.3-7,31.4-11.9
	c3.5-14.7-20.4-8.3-26.2-18.2C50,102.6,47,87.3,36.6,97.7c-7.1,5.6-16.3,7.6-25,6.5c-12.5-3-15.8-21.1-5.3-27.8
	c5.3-8.8,27.8-1.1,17.2,7.1c-7.2-7.1-19.5,5.7-7.7,9.1C27.8,92.7,34.4,78.6,46,76.9c13.6-0.6,15.4,19.2,27.8,20.6
	c11-3.7,16.1-19.7,7.2-28.3C67.6,56,63.1,37.1,62.1,19c-0.3-14.8-17.9-1.6-10,7.4c4.3,6.7,1.9,16.3-5.1,6.2
	c-4.9-7.4-6-16.9-1.7-23.9C51-3,70.5-3.2,74.4,10c6.2,10.7,4.2,26,12.8,34.4c6-11.8,14.4-24.2,28.5-27.4c11-1.7,24.3,0,33,8.6
	c7.4,2.9,8.6,18.8,14.3,18.2c6-10.7,5.7-23.8,11.7-34.5c3.9-14.6,21.5-9.8,28,0.1c11.6,7.6,0.5,28.1-8.5,25.7
	c0.7-7.4,8.4-16.9-0.1-23.3c-10.1-0.9-6.5,13.6-8.8,20.4c-1.6,8.4-3.5,16.5-6.5,22.2c-3,5.9-13.6,17.1-15.1,21.4
	c-4.5,9.1,9.6,28.6,19,17.7c5.7-9,15.3-23.3,27.2-13.6c7.7,4.7,22.6,20.5,28.7,6.4c-2.6-9.7-22.3,3.5-14.6-11.2
	c8.4-7.3,21.5,0,24,10c4.5,9.2-3.5,18.6-13.4,18.8c-12.4,5.5-26-17.4-34.3-6.2c-2.1,11.4-11.8,20.2-23.5,19.2
	c-4.5,1.8-12.9,4.7-7.3,11.8c16.4,6.6,35.5,10.2,47.6,24.5c8.8,9.4,11.2,26,0.8,35.4C216.7,189.9,215.6,191,214.2,191.9L214.2,191.9
	z M219,182.2c7.4-11.7-1.5-26-11.4-33.2c-12.7-10.2-29.8-11.4-43.7-19.2c-4.2-4-19.4-15.8-11.5-20.1c10-0.5,20,5.6,30.4,3.3
	c9.2-1.4,12.8-12.8,16.9-20.7c9.1-5.9,18.2,9.4,28.3,8.6c7.2,0.8,17.3-1.7,17.5-10c3-10.4-18-21.5-19.9-9.8
	c11.7-12.4,22.9,15.8,6.4,14.9c-12.7-0.5-19.9-14.3-32.2-16.2c-9.3,4.7-12.2,16.6-21.6,21.2c-8.2,1.7-16.7-2.7-21.5-9.6
	c-3.8-5.9,0.5-15.1-4-3.1c-3.7,8.2-2.5,19.7-10.4,25c-9.9,4-20.9,0-31.5,0.9c-14.7,0.4-10.1-23.4-17.6-26.5
	c-1.9,8.8-12.7,14.4-21.7,13.2c-11.9-2.8-13.9-22.6-27.5-20c-10.7,5-19.5,19.1-32.9,13.8c-10.6-9.1,4.2-20.2,12.4-15.8
	C18.4,72.1,8.1,79.3,6,81.3c-11.6,14.1,10.3,25.8,22,17.6c8.1-7.6,22.6-13.6,25,2.5c3.3,13.4,18.5,13.6,29.3,10.5
	c6.9-2.5,21.4-5.2,14.8,5.9c-4.8,8.1-12.3,12.6-19.9,15.7c-10,4.5-22,5.7-30.8,12.9c-4.9,2.1-14.1,9.8-17.7,17.7
	c-5.4,11,3.2,28.8,16.7,26.7c6.4,1.4,15.8-11.9,11.3-9.8c-6.4,11.7-21.4,7.5-24.4-4.6c-3.8-12,7.5-21.1,17.5-24.4
	c8.5-1.1,16.4-5.2,25.4-5.7c12-1.6,22.3-7.9,30.8-16.3c11.3-7.5,2.8,14.4,3.5,19.8c-2.2,12.8-2.1,26.3-6.6,38.5
	c-1.9,10-4.6,20-4.5,30.1c0.1,14.2,18.7,13.9,25.5,4.7c4.2-4.3,16.2-2.9,4.2-3.7c-9,5.2-26.2,10.2-23.8-6.7
	c1.9-13.9,11.6-25,15.3-38.5c5.8-14.4,4.9-30.6,6.5-46c9.6-10.9,20.8,10,31.3,12.5c10.3,5.9,22.8,5.4,34,9.4
	c10.9,3.4,27.2,8.8,26.2,23.1c1.7,10.5-10.7,18.8-19.8,11.7c-5.7-4.7-10.3-11-5-0.8c5.4,9.6,20,9.3,25.2-0.4L219,182.2L219,182.2z
	 M137.4,221.4c-3.6-1.8,2.1,2.9,1.6,1.4L137.4,221.4z M166,66.3c6.4-6.2,11.3-14,13.6-22.8c4.4-10.5,2.1-22.3,6.2-32.6
	c11.4-10,19.2,12.6,13.2,19.7c7.5-8.2,4.8-25.7-7.8-27.2c-12.2-2.5-16,11.2-18.1,20.2c-2.3,6.9-5.1,21.5-8.8,23.5
	c-0.6,5.9-5.4,22.6-1.6,22.8C163.7,68.7,164.8,67.6,166,66.3z M87,66.3c1.1-13.2-6.2-24.1-9.5-36.4C74.9,20.2,73.6,5.7,62,2.9
	c-9.9-0.7-17.5,9.8-16.3,17.8c0.3,5.5,6.8,15.3,2.9,5.2C41.5,13,64-0.7,64.8,17.8c2.1,15,3.1,31.3,13.6,43.3
	C81.2,63.3,94.2,83.7,87,66.3z"/>
</svg>
